<svg xmlns="http://www.w3.org/2000/svg" data-name="Group 1230" viewBox="0 0 1080 1920"><defs><clipPath id="a"><path d="M0 0h1080v1920H0z" fill="#ffd428" data-name="Rectangle 253"/></clipPath></defs><g clip-path="url(#a)" data-name="Mask Group 14"><path d="M0 0h1080v1920H0z" fill="#ffd428" data-name="Rectangle 252"/><g data-name="Group 1229"><path d="M0 1021h1080v61H0z" fill="#fc0" data-name="Rectangle 178"/><path d="M645.797 1040.1h137.716a5 5 0 0 0 5-5v-74.643a42.854 42.854 0 0 0-42.852-42.852h-99.864zm0 0" fill="#ffd500" data-name="Path 101"/><path d="M759.074 882.133a14.721 14.721 0 1 0 14.723-14.723 14.72 14.72 0 0 0-14.723 14.723zm0 0" fill="#dfdfdf" data-name="Path 102"/><path d="M684.536 917.605h-38.739V1040.1h38.739zm0 0" fill="#fbc700" data-name="Path 103"/><path d="M706.93 1003.27a36.6 36.6 0 0 0 42.285 55.516 36.589 36.589 0 1 1-42.285-55.516zm0 0" fill="#e4bc1a" data-name="Path 105"/><path d="M313.473 1040.1h335.363V867.473a21.987 21.987 0 0 0-21.989-21.988H313.472a21.987 21.987 0 0 0-21.988 21.988v150.637a21.987 21.987 0 0 0 21.988 21.99zm0 0" fill="#ffd500" data-name="Path 106"/><path d="M352.387 936.8h264.449a9 9 0 0 0 9-9v-39.409a9 9 0 0 0-9-9H352.383a9 9 0 0 0-9 9V927.8a9.006 9.006 0 0 0 9 9zm0 0" fill="#dfdfdf" data-name="Path 107"/><path d="M352.367 879.391h23a8.982 8.982 0 0 0-8.984 8.98v39.449a8.986 8.986 0 0 0 8.984 8.984h-23a8.986 8.986 0 0 1-8.984-8.984v-39.449a8.985 8.985 0 0 1 8.984-8.98zm0 0" fill="#c0c2c3" data-name="Path 108"/><path d="M313.433 845.484h41.918a21.949 21.949 0 0 0-21.948 21.946v150.723a21.946 21.946 0 0 0 21.945 21.947h-41.915a21.944 21.944 0 0 1-21.945-21.945V867.43a21.949 21.949 0 0 1 21.945-21.946zm0 0" fill="#fbc700" data-name="Path 109"/><path d="M425.326 1003.27a36.6 36.6 0 0 0 42.285 55.516 36.589 36.589 0 1 1-42.285-55.516zm0 0" fill="#e4bc1a" data-name="Path 111"/><path d="M313.43 838h313.461a29.464 29.464 0 0 1 29.43 29.43v42.691h89.426a49.99 49.99 0 0 1 14.465 2.133l2.98-2.98a10.556 10.556 0 0 0 3.035-6.266 22.209 22.209 0 1 1 15.02.039 25.4 25.4 0 0 1-6.8 16.109A50.23 50.23 0 0 1 796 960.375v74.73a12.492 12.492 0 0 1-12.477 12.477h-21.27a44.064 44.064 0 0 1-85.891 0h-195.71a44.064 44.064 0 0 1-85.891 0H375.32a7.484 7.484 0 1 1 0-14.969h18.617a44.066 44.066 0 0 1 87.543 0h159.867v-56.746a7.487 7.487 0 0 1 14.973 0v56.746h19.215a44.066 44.066 0 0 1 87.543 0h17.949v-72.238a35.3 35.3 0 0 0-17.379-30.387l-7.391 7.391q-5.291 4.383-10.586 0a7.481 7.481 0 0 1 0-10.586l1.656-1.656a36 36 0 0 0-1.582-.039H656.32v18.172a7.484 7.484 0 1 1-14.969 0v-75.84a14.475 14.475 0 0 0-14.461-14.457H313.429a14.472 14.472 0 0 0-14.457 14.457v150.723a14.475 14.475 0 0 0 14.457 14.461h28.293a7.484 7.484 0 0 1 0 14.969h-28.293a29.464 29.464 0 0 1-29.429-29.43V867.43A29.464 29.464 0 0 1 313.429 838zm460.37 36.9a7.234 7.234 0 1 0 7.23 7.234 7.241 7.241 0 0 0-7.23-7.234zm-336.093 133.7a29.105 29.105 0 1 0 29.105 29.105 29.138 29.138 0 0 0-29.105-29.105zm281.6 0a29.105 29.105 0 1 0 29.105 29.105 29.138 29.138 0 0 0-29.103-29.105zm0 0" data-name="Path 112"/><path d="M335.898 927.82v-39.449a16.486 16.486 0 0 1 16.469-16.471h264.488a16.485 16.485 0 0 1 16.463 16.471v39.449a16.38 16.38 0 0 1-10.437 15.328 7.481 7.481 0 0 1-2.727.52l-267.773.621h-.016a16.486 16.486 0 0 1-16.466-16.469zm141.77-40.945h-55.09v42.281l55.09-.129zm14.969 42.117 55.09-.129v-41.988h-55.09zm125.715-1.172v-39.449a1.5 1.5 0 0 0-1.5-1.5H562.7v41.957l55.367-.125a1.471 1.471 0 0 0 .285-.883zm-267.48 0a1.5 1.5 0 0 0 1.5 1.5l55.238-.129v-42.316h-55.242a1.5 1.5 0 0 0-1.5 1.5zm0 0" data-name="Path 113"/><path d="M709.449 1037.707a9.861 9.861 0 1 0 9.859-9.859 9.859 9.859 0 0 0-9.859 9.859zm0 0" data-name="Path 114"/><path d="M427.848 1037.707a9.861 9.861 0 1 0 9.863-9.859 9.86 9.86 0 0 0-9.863 9.859zm0 0" data-name="Path 115"/><path d="M590.008 975.734h18a7.5 7.5 0 0 0 0-15h-18a7.5 7.5 0 1 0 0 15zm0 0" data-name="Path 116"/><g fill="none" stroke="none" data-name="Group 296"><g data-name="Union 1"><path d="M49 1021v-38.639H38.722C12.366 982.361-9 963.347-9 939.89-9 891.3 22.214 839 53.136 839s61.552 52.3 61.552 100.023c0 23.936-21.8 43.338-48.7 43.338H56V1021z"/><path d="M65.992 977.361c5.97 0 11.755-1.038 17.193-3.085 5.222-1.966 9.905-4.773 13.917-8.343 3.97-3.533 7.08-7.633 9.243-12.187 2.219-4.667 3.343-9.62 3.343-14.723 0-5.596-.444-11.403-1.321-17.26a132.834 132.834 0 0 0-3.752-17.115c-3.19-11.047-7.819-21.748-13.385-30.945-5.537-9.15-11.939-16.705-18.512-21.848-3.298-2.58-6.635-4.556-9.92-5.874-3.277-1.315-6.527-1.981-9.662-1.981-3.138 0-6.398.668-9.69 1.985-3.307 1.322-6.668 3.304-9.993 5.892-6.64 5.168-13.11 12.758-18.71 21.948-5.649 9.268-10.344 20.055-13.58 31.196a133.41 133.41 0 0 0-3.817 17.326C-3.547 928.29-4 934.192-4 939.89c0 4.985 1.1 9.825 3.266 14.386 2.115 4.45 5.155 8.457 9.036 11.91 3.922 3.492 8.5 6.236 13.606 8.158 5.318 2.002 10.975 3.017 16.814 3.017h27.27M56 1021h-7v-38.64H38.722C12.366 982.36-9 963.346-9 939.889-9 891.298 22.214 839 53.136 839c30.922 0 61.552 52.298 61.552 100.023 0 23.936-21.802 43.338-48.696 43.338H56V1021z" fill="#90781d"/></g><g data-name="Union 2"><path d="M190 1021v-38.639h-10.278c-26.356 0-47.722-19.014-47.722-42.471C132 891.3 163.214 839 194.136 839s61.552 52.3 61.552 100.023c0 23.936-21.8 43.338-48.7 43.338H197V1021z"/><path d="M206.992 977.361c5.97 0 11.755-1.038 17.193-3.085 5.222-1.966 9.905-4.773 13.917-8.343 3.97-3.533 7.08-7.633 9.243-12.187 2.219-4.667 3.343-9.62 3.343-14.723 0-5.596-.444-11.403-1.321-17.26a132.834 132.834 0 0 0-3.752-17.115c-3.19-11.047-7.819-21.748-13.385-30.945-5.537-9.15-11.939-16.705-18.512-21.848-3.298-2.58-6.635-4.556-9.92-5.874-3.277-1.315-6.527-1.981-9.662-1.981-3.138 0-6.398.668-9.69 1.985-3.307 1.322-6.668 3.304-9.993 5.892-6.64 5.168-13.11 12.758-18.71 21.948-5.649 9.268-10.344 20.055-13.58 31.196a133.41 133.41 0 0 0-3.817 17.326c-.893 5.943-1.346 11.845-1.346 17.543 0 4.985 1.1 9.825 3.266 14.386 2.115 4.45 5.155 8.457 9.036 11.91 3.922 3.492 8.5 6.236 13.606 8.158 5.318 2.002 10.975 3.017 16.814 3.017h27.27M197 1021h-7v-38.64h-10.278c-26.356 0-47.722-19.014-47.722-42.471C132 891.298 163.214 839 194.136 839c30.922 0 61.552 52.298 61.552 100.023 0 23.936-21.802 43.338-48.696 43.338H197V1021z" fill="#90781d"/></g><g data-name="Union 3"><path d="M937 1021v-38.639h-10.278c-26.356 0-47.722-19.014-47.722-42.471C879 891.3 910.214 839 941.136 839s61.552 52.3 61.552 100.023c0 23.936-21.8 43.338-48.7 43.338H944V1021z"/><path d="M953.992 977.361c5.97 0 11.755-1.038 17.193-3.085 5.222-1.966 9.905-4.773 13.917-8.343 3.97-3.533 7.08-7.633 9.243-12.187 2.219-4.667 3.343-9.62 3.343-14.723 0-5.596-.444-11.403-1.321-17.26a132.834 132.834 0 0 0-3.752-17.115c-3.19-11.047-7.819-21.748-13.385-30.945-5.537-9.15-11.939-16.705-18.512-21.848-3.298-2.58-6.635-4.556-9.92-5.874-3.277-1.315-6.527-1.981-9.662-1.981-3.138 0-6.398.668-9.69 1.985-3.307 1.322-6.668 3.304-9.993 5.892-6.64 5.168-13.11 12.758-18.71 21.948-5.649 9.268-10.344 20.055-13.58 31.196a133.41 133.41 0 0 0-3.817 17.326c-.893 5.943-1.346 11.845-1.346 17.543 0 4.985 1.1 9.825 3.266 14.386 2.115 4.45 5.155 8.457 9.036 11.91 3.922 3.492 8.5 6.236 13.606 8.158 5.318 2.002 10.975 3.017 16.814 3.017h27.27M944 1021h-7v-38.64h-10.278c-26.356 0-47.722-19.014-47.722-42.471C879 891.298 910.214 839 941.136 839c30.922 0 61.552 52.298 61.552 100.023 0 23.936-21.802 43.338-48.696 43.338H944V1021z" fill="#90781d"/></g><g data-name="Union 6"><path d="M1046.147 1021v-22.079h-5.873c-15.063 0-27.274-10.866-27.274-24.269 0-27.767 17.839-57.652 35.51-57.652s35.177 29.885 35.177 57.156c0 13.677-12.459 24.764-27.83 24.764h-5.71V1021z"/><path d="M1055.858 993.92c12.589 0 22.83-8.866 22.83-19.764 0-6.087-.973-12.673-2.815-19.048-1.772-6.135-4.34-12.071-7.424-17.168-6.041-9.98-13.495-15.94-19.939-15.94-1.519 0-3.115.33-4.742.98-1.703.682-3.449 1.714-5.19 3.07-3.593 2.795-7.113 6.933-10.18 11.965-3.13 5.137-5.735 11.122-7.533 17.31-1.874 6.45-2.865 13.133-2.865 19.326 0 10.625 9.992 19.27 22.274 19.27h15.584m-5.71 27.078h-4v-22.078h-5.874c-15.064 0-27.274-10.866-27.274-24.27 0-27.767 17.84-57.651 35.51-57.651 17.673 0 35.178 29.884 35.178 57.156 0 13.678-12.46 24.765-27.83 24.765h-5.71v22.078z" fill="#90781d"/></g></g><g fill="#cca920" data-name="Group 294" transform="translate(-5 129)"><rect width="31" height="7" data-name="Rectangle 182" rx="3" transform="translate(53 930)"/><rect width="40" height="7" data-name="Rectangle 186" rx="3" transform="translate(115 930)"/><rect width="94" height="7" data-name="Rectangle 187" rx="3" transform="translate(170 930)"/><rect width="19" height="7" data-name="Rectangle 183" rx="3" transform="translate(99 911)"/><rect width="105" height="7" data-name="Rectangle 184" rx="3" transform="translate(126 911)"/><rect width="25" height="7" data-name="Rectangle 185" rx="3" transform="translate(256 911)"/></g><g fill="#cca920" data-name="Group 297" transform="translate(751 129)"><rect width="31" height="7" data-name="Rectangle 182" rx="3" transform="translate(53 930)"/><rect width="40" height="7" data-name="Rectangle 186" rx="3" transform="translate(115 930)"/><rect width="94" height="7" data-name="Rectangle 187" rx="3" transform="translate(170 930)"/><rect width="19" height="7" data-name="Rectangle 183" rx="3" transform="translate(99 911)"/><rect width="105" height="7" data-name="Rectangle 184" rx="3" transform="translate(126 911)"/><rect width="25" height="7" data-name="Rectangle 185" rx="3" transform="translate(256 911)"/></g><g fill="none" stroke="none" data-name="Group 295"><g data-name="Path 123"><path d="M148.813 743.613c34.923 0 34.547 34.546 34.547 34.546h-69.093s-.376-34.546 34.546-34.546z"/><path d="M148.813 746.613c-5.112 0-9.697.796-13.628 2.367-3.364 1.345-6.322 3.288-8.792 5.775-2.067 2.082-3.831 4.581-5.243 7.428-1.151 2.32-2.073 4.876-2.74 7.598a41.775 41.775 0 0 0-.949 5.378h62.707c-.503-4.628-2.323-13.72-8.9-20.37-2.47-2.497-5.43-4.447-8.8-5.798-3.935-1.578-8.529-2.378-13.654-2.378m0-3c34.923 0 34.546 34.546 34.546 34.546h-69.093s-.376-34.546 34.546-34.546z" fill="#90781d"/></g><g data-name="Path 124"><path d="M318.205 598.259c26.886 0 26.6 26.6 26.6 26.6h-53.2s-.29-26.6 26.6-26.6z"/><path d="M318.202 601.259c-3.846 0-7.287.596-10.23 1.77-2.501 1-4.7 2.441-6.534 4.287-1.536 1.545-2.849 3.402-3.902 5.519-.864 1.736-1.557 3.652-2.06 5.693a30.976 30.976 0 0 0-.632 3.328h46.716a31.736 31.736 0 0 0-.632-3.328c-.504-2.041-1.197-3.957-2.06-5.693-1.054-2.117-2.367-3.974-3.903-5.52-1.835-1.845-4.033-3.287-6.534-4.285-2.943-1.175-6.384-1.771-10.23-1.771m0-3c26.887 0 26.597 26.597 26.597 26.597h-53.193s-.29-26.597 26.597-26.597z" fill="#90781d"/></g><g data-name="Path 131"><path d="M914.407 678.495c26.886 0 26.6 26.6 26.6 26.6h-53.2s-.29-26.6 26.6-26.6z"/><path d="M914.404 681.495c-3.846 0-7.287.596-10.23 1.77-2.501 1-4.7 2.441-6.534 4.287-1.536 1.545-2.849 3.402-3.902 5.519-.864 1.736-1.557 3.652-2.06 5.693a30.976 30.976 0 0 0-.632 3.328h46.716a31.736 31.736 0 0 0-.632-3.328c-.504-2.041-1.197-3.957-2.06-5.693-1.054-2.117-2.367-3.974-3.903-5.52-1.835-1.845-4.033-3.287-6.534-4.285-2.943-1.175-6.384-1.771-10.23-1.771m0-3c26.887 0 26.597 26.597 26.597 26.597h-53.193s-.29-26.597 26.597-26.597z" fill="#90781d"/></g><g data-name="Union 4"><path d="M468.274 717.348H327.266s-.29-26.6 26.6-26.6c7.529 0 12.927 2.086 16.8 5.089 5.548-13.926 18.128-29.489 46.606-29.489 31.323 0 43.412 18.827 48.075 33.6a22.92 22.92 0 0 1 4.561-.432c18.025.004 17.83 17.832 17.83 17.832z"/><path d="M484.4 714.35c-.451-2.34-1.505-5.604-3.966-8.073a11.862 11.862 0 0 0-4.044-2.644c-1.853-.739-4.034-1.113-6.481-1.113-1.414 0-2.747.125-3.965.372l-2.645.536-.812-2.573c-1.241-3.933-2.854-7.586-4.794-10.858-2.316-3.905-5.127-7.312-8.357-10.127-3.73-3.25-8.103-5.781-12.999-7.523-5.594-1.989-12.009-2.999-19.065-2.999-6.451 0-12.375.844-17.607 2.508-4.638 1.476-8.836 3.63-12.479 6.402-5.988 4.559-10.611 10.849-13.74 18.695l-1.476 3.703-3.15-2.444c-3.813-2.959-8.845-4.459-14.958-4.459-3.845 0-7.286.596-10.229 1.77-2.5 1-4.699 2.441-6.533 4.286-1.536 1.545-2.85 3.403-3.903 5.52-.864 1.736-1.557 3.652-2.06 5.693a31.068 31.068 0 0 0-.632 3.328H484.4m3.338 3H327.266s-.29-26.597 26.596-26.597c7.53 0 12.928 2.086 16.798 5.09 5.554-13.933 18.134-29.495 46.612-29.495 31.323 0 43.412 18.828 48.076 33.604 1.373-.279 2.888-.432 4.56-.432 18.025 0 17.83 17.83 17.83 17.83z" fill="#90781d"/></g><g data-name="Union 5"><path d="M615.891 666.086h-39s-.29-26.6 26.6-26.6c7.529 0 12.927 2.086 16.8 5.089 5.548-13.926 18.128-29.489 46.606-29.489 51.557 0 51 51 51 51z"/><path d="M714.757 663.088a62.273 62.273 0 0 0-1.521-9.44c-.998-4.149-2.387-8.052-4.13-11.601-2.155-4.392-4.861-8.25-8.042-11.465-3.786-3.827-8.32-6.816-13.475-8.882-5.982-2.398-12.944-3.614-20.692-3.614-6.451 0-12.375.844-17.607 2.508-4.638 1.476-8.836 3.63-12.479 6.402-5.988 4.559-10.611 10.849-13.74 18.695l-1.476 3.703-3.15-2.444c-3.813-2.959-8.845-4.46-14.958-4.46-3.845 0-7.286.597-10.229 1.772-2.5.998-4.699 2.44-6.533 4.285-1.536 1.545-2.85 3.403-3.903 5.52-.864 1.736-1.557 3.652-2.06 5.693a31.068 31.068 0 0 0-.632 3.328h134.627m3.142 3H576.891s-.29-26.597 26.596-26.597c7.53 0 12.928 2.086 16.798 5.09 5.554-13.933 18.134-29.495 46.612-29.495 51.558 0 51.002 51.002 51.002 51.002z" fill="#90781d"/></g></g></g></g></svg>