<svg xmlns="http://www.w3.org/2000/svg" id="Group_1230" width="1080" height="1920" data-name="Group 1230" viewBox="0 0 1080 1920">
    <defs>
        <clipPath id="clip-path">
            <path id="Rectangle_253" d="M0 0H1080V1920H0z" class="cls-1" data-name="Rectangle 253"/>
        </clipPath>
        <style>
            .cls-1{fill:#ffd428}.cls-4{fill:#ffd500}.cls-5{fill:#dfdfdf}.cls-6{fill:#fbc700}.cls-7{fill:#e4bc1a}.cls-9{fill:none}.cls-10{fill:#cca920}.cls-11,.cls-12{stroke:none}.cls-12{fill:#90781d}
        </style>
    </defs>
    <g id="Mask_Group_14" clip-path="url(#clip-path)" data-name="Mask Group 14">
        <path id="Rectangle_252" d="M0 0H1080V1920H0z" class="cls-1" data-name="Rectangle 252"/>
        <g id="Group_1229" data-name="Group 1229">
            <path id="Rectangle_178" fill="#fc0" d="M0 0H1080V61H0z" data-name="Rectangle 178" transform="translate(0 1021)"/>
            <g id="transport" transform="translate(284 838)">
                <path id="Path_101" d="M7.484 202.6H145.2a5 5 0 0 0 5-5v-74.643a42.854 42.854 0 0 0-42.852-42.852H7.484zm0 0" class="cls-4" data-name="Path 101" transform="translate(354.313 -.5)"/>
                <path id="Path_102" d="M7.484 44.633A14.721 14.721 0 1 0 22.207 29.91 14.72 14.72 0 0 0 7.484 44.633zm0 0" class="cls-5" data-name="Path 102" transform="translate(467.59 -.5)"/>
                <path id="Path_103" d="M150.2 80.105h-38.739V202.6H150.2zm0 0" class="cls-6" data-name="Path 103" transform="translate(250.336 -.5)"/>
                <path id="Path_105" d="M71 165.77a36.6 36.6 0 0 0 42.285 55.516A36.589 36.589 0 1 1 71 165.77zm0 0" class="cls-7" data-name="Path 105" transform="translate(351.93 -.5)"/>
                <path id="Path_106" d="M169.153 202.6h335.363V29.973a21.987 21.987 0 0 0-21.989-21.988H169.152a21.987 21.987 0 0 0-21.988 21.988V180.61a21.987 21.987 0 0 0 21.988 21.99zm0 0" class="cls-4" data-name="Path 106" transform="translate(-139.68 -.5)"/>
                <path id="Path_107" d="M179.168 99.3h264.449a9 9 0 0 0 9-9V50.891a9 9 0 0 0-9-9H179.164a9 9 0 0 0-9 9V90.3a9.006 9.006 0 0 0 9 9zm0 0" class="cls-5" data-name="Path 107" transform="translate(-110.781 -.5)"/>
                <path id="Path_108" fill="#c0c2c3" d="M429.617 41.891h23a8.982 8.982 0 0 0-8.984 8.98V90.32a8.986 8.986 0 0 0 8.984 8.984h-23a8.986 8.986 0 0 1-8.984-8.984V50.871a8.985 8.985 0 0 1 8.984-8.98zm0 0" data-name="Path 108" transform="translate(-361.25 -.5)"/>
                <path id="Path_109" d="M462.6 7.984h41.918A21.949 21.949 0 0 0 482.57 29.93v150.723a21.946 21.946 0 0 0 21.945 21.947H462.6a21.944 21.944 0 0 1-21.945-21.945V29.93A21.949 21.949 0 0 1 462.6 7.984zm0 0" class="cls-6" data-name="Path 109" transform="translate(-433.167 -.5)"/>
                <path id="Path_111" d="M352.6 165.77a36.6 36.6 0 0 0 42.285 55.516A36.589 36.589 0 1 1 352.6 165.77zm0 0" class="cls-7" data-name="Path 111" transform="translate(-211.274 -.5)"/>
                <path id="Path_112" d="M29.43.5h313.461a29.464 29.464 0 0 1 29.43 29.43v42.691h89.426a49.99 49.99 0 0 1 14.465 2.133l2.98-2.98a10.556 10.556 0 0 0 3.035-6.266 22.209 22.209 0 1 1 15.02.039 25.4 25.4 0 0 1-6.8 16.109A50.23 50.23 0 0 1 512 122.875v74.73a12.492 12.492 0 0 1-12.477 12.477h-21.27a44.064 44.064 0 0 1-85.891 0h-195.71a44.064 44.064 0 0 1-85.891 0H91.32a7.484 7.484 0 1 1 0-14.969h18.617a44.066 44.066 0 0 1 87.543 0h159.867v-56.746a7.486 7.486 0 0 1 14.973 0v56.746h19.215a44.066 44.066 0 0 1 87.543 0h17.949v-72.238a35.3 35.3 0 0 0-17.379-30.387l-7.391 7.391q-5.291 4.383-10.586 0a7.481 7.481 0 0 1 0-10.586l1.656-1.656c-.523-.023-1.051-.039-1.582-.039H372.32v18.172a7.484 7.484 0 1 1-14.969 0V29.93a14.475 14.475 0 0 0-14.461-14.457H29.429A14.472 14.472 0 0 0 14.972 29.93v150.723a14.475 14.475 0 0 0 14.457 14.461h28.293a7.484 7.484 0 0 1 0 14.969H29.429A29.464 29.464 0 0 1 0 180.653V29.93A29.464 29.464 0 0 1 29.429.5zM489.8 37.4a7.234 7.234 0 1 0 7.23 7.234 7.241 7.241 0 0 0-7.23-7.234zM153.707 171.1a29.105 29.105 0 1 0 29.105 29.105 29.138 29.138 0 0 0-29.105-29.105zm281.6 0a29.105 29.105 0 1 0 29.105 29.105 29.138 29.138 0 0 0-29.103-29.105zm0 0" data-name="Path 112" transform="translate(0 -.5)"/>
                <path id="Path_113" d="M162.68 90.32V50.871A16.486 16.486 0 0 1 179.149 34.4h264.488A16.485 16.485 0 0 1 460.1 50.871V90.32a16.38 16.38 0 0 1-10.437 15.328 7.481 7.481 0 0 1-2.727.52l-267.773.621h-.016a16.486 16.486 0 0 1-16.466-16.469zm141.77-40.945h-55.09v42.281l55.09-.129zm14.969 42.117l55.09-.129V49.375h-55.09zm125.715-1.172V50.871a1.5 1.5 0 0 0-1.5-1.5h-54.152v41.957l55.367-.125a1.471 1.471 0 0 0 .285-.883zm-267.48 0a1.5 1.5 0 0 0 1.5 1.5l55.238-.129V49.375H179.15a1.5 1.5 0 0 0-1.5 1.5zm0 0" data-name="Path 113" transform="translate(-110.782 -.5)"/>
                <path id="Path_114" d="M66.828 200.207a9.861 9.861 0 1 0 9.859-9.859 9.859 9.859 0 0 0-9.859 9.859zm0 0" data-name="Path 114" transform="translate(358.621 -.5)"/>
                <path id="Path_115" d="M348.429 200.207a9.861 9.861 0 1 0 9.863-9.859 9.86 9.86 0 0 0-9.863 9.859zm0 0" data-name="Path 115" transform="translate(-204.581 -.5)"/>
                <path id="Path_116" d="M188 138.234h18a7.5 7.5 0 0 0 0-15h-18a7.5 7.5 0 1 0 0 15zm0 0" data-name="Path 116" transform="translate(118.008 -.5)"/>
            </g>
            <g id="Group_296" data-name="Group 296">
                <g id="Union_1" class="cls-9" data-name="Union 1">
                    <path d="M-3392 182v-38.639h-10.278c-26.356 0-47.722-19.014-47.722-42.471C-3450 52.3-3418.786 0-3387.864 0s61.552 52.3 61.552 100.023c0 23.936-21.8 43.338-48.7 43.338H-3385V182z" class="cls-11" transform="translate(3441 839)"/>
                    <path d="M-3375.008 138.361c5.97 0 11.755-1.038 17.193-3.085 5.222-1.966 9.905-4.773 13.917-8.343 3.97-3.533 7.08-7.633 9.243-12.187 2.219-4.667 3.343-9.62 3.343-14.723 0-5.596-.444-11.403-1.321-17.26-.852-5.686-2.114-11.445-3.752-17.115-3.19-11.047-7.819-21.748-13.385-30.945-5.537-9.15-11.939-16.705-18.512-21.848-3.298-2.58-6.635-4.556-9.92-5.874-3.277-1.315-6.527-1.981-9.662-1.981-3.138 0-6.398.668-9.69 1.985-3.307 1.322-6.668 3.304-9.993 5.892-6.64 5.168-13.11 12.758-18.71 21.948-5.649 9.268-10.344 20.055-13.58 31.196-1.667 5.734-2.95 11.564-3.817 17.326-.893 5.943-1.346 11.845-1.346 17.543 0 4.985 1.1 9.825 3.266 14.386 2.115 4.45 5.155 8.457 9.036 11.91 3.922 3.492 8.5 6.236 13.606 8.158 5.318 2.002 10.975 3.017 16.814 3.017h27.27M-3385 182h-7V143.36h-10.278c-26.356 0-47.722-19.014-47.722-42.471C-3450 52.298-3418.786 0-3387.864 0c30.922 0 61.552 52.298 61.552 100.023 0 23.936-21.802 43.338-48.696 43.338H-3385V182z" class="cls-12" transform="translate(3441 839)"/>
                </g>
                <g id="Union_2" class="cls-9" data-name="Union 2">
                    <path d="M-3392 182v-38.639h-10.278c-26.356 0-47.722-19.014-47.722-42.471C-3450 52.3-3418.786 0-3387.864 0s61.552 52.3 61.552 100.023c0 23.936-21.8 43.338-48.7 43.338H-3385V182z" class="cls-11" transform="translate(3582 839)"/>
                    <path d="M-3375.008 138.361c5.97 0 11.755-1.038 17.193-3.085 5.222-1.966 9.905-4.773 13.917-8.343 3.97-3.533 7.08-7.633 9.243-12.187 2.219-4.667 3.343-9.62 3.343-14.723 0-5.596-.444-11.403-1.321-17.26-.852-5.686-2.114-11.445-3.752-17.115-3.19-11.047-7.819-21.748-13.385-30.945-5.537-9.15-11.939-16.705-18.512-21.848-3.298-2.58-6.635-4.556-9.92-5.874-3.277-1.315-6.527-1.981-9.662-1.981-3.138 0-6.398.668-9.69 1.985-3.307 1.322-6.668 3.304-9.993 5.892-6.64 5.168-13.11 12.758-18.71 21.948-5.649 9.268-10.344 20.055-13.58 31.196-1.667 5.734-2.95 11.564-3.817 17.326-.893 5.943-1.346 11.845-1.346 17.543 0 4.985 1.1 9.825 3.266 14.386 2.115 4.45 5.155 8.457 9.036 11.91 3.922 3.492 8.5 6.236 13.606 8.158 5.318 2.002 10.975 3.017 16.814 3.017h27.27M-3385 182h-7V143.36h-10.278c-26.356 0-47.722-19.014-47.722-42.471C-3450 52.298-3418.786 0-3387.864 0c30.922 0 61.552 52.298 61.552 100.023 0 23.936-21.802 43.338-48.696 43.338H-3385V182z" class="cls-12" transform="translate(3582 839)"/>
                </g>
                <g id="Union_3" class="cls-9" data-name="Union 3">
                    <path d="M-3392 182v-38.639h-10.278c-26.356 0-47.722-19.014-47.722-42.471C-3450 52.3-3418.786 0-3387.864 0s61.552 52.3 61.552 100.023c0 23.936-21.8 43.338-48.7 43.338H-3385V182z" class="cls-11" transform="translate(4329 839)"/>
                    <path d="M-3375.008 138.361c5.97 0 11.755-1.038 17.193-3.085 5.222-1.966 9.905-4.773 13.917-8.343 3.97-3.533 7.08-7.633 9.243-12.187 2.219-4.667 3.343-9.62 3.343-14.723 0-5.596-.444-11.403-1.321-17.26-.852-5.686-2.114-11.445-3.752-17.115-3.19-11.047-7.819-21.748-13.385-30.945-5.537-9.15-11.939-16.705-18.512-21.848-3.298-2.58-6.635-4.556-9.92-5.874-3.277-1.315-6.527-1.981-9.662-1.981-3.138 0-6.398.668-9.69 1.985-3.307 1.322-6.668 3.304-9.993 5.892-6.64 5.168-13.11 12.758-18.71 21.948-5.649 9.268-10.344 20.055-13.58 31.196-1.667 5.734-2.95 11.564-3.817 17.326-.893 5.943-1.346 11.845-1.346 17.543 0 4.985 1.1 9.825 3.266 14.386 2.115 4.45 5.155 8.457 9.036 11.91 3.922 3.492 8.5 6.236 13.606 8.158 5.318 2.002 10.975 3.017 16.814 3.017h27.27M-3385 182h-7V143.36h-10.278c-26.356 0-47.722-19.014-47.722-42.471C-3450 52.298-3418.786 0-3387.864 0c30.922 0 61.552 52.298 61.552 100.023 0 23.936-21.802 43.338-48.696 43.338H-3385V182z" class="cls-12" transform="translate(4329 839)"/>
                </g>
                <g id="Union_6" class="cls-9" data-name="Union 6">
                    <path d="M-3416.853 104V81.921h-5.873c-15.063 0-27.274-10.866-27.274-24.269C-3450 29.885-3432.161 0-3414.49 0s35.177 29.885 35.177 57.156c0 13.677-12.459 24.764-27.83 24.764h-5.71V104z" class="cls-11" transform="translate(4463 917)"/>
                    <path d="M-3407.142 76.92c12.589 0 22.83-8.866 22.83-19.764 0-6.087-.973-12.673-2.815-19.048-1.772-6.135-4.34-12.071-7.424-17.168C-3400.592 10.96-3408.046 5-3414.49 5c-1.519 0-3.115.33-4.742.98-1.703.682-3.449 1.714-5.19 3.07-3.593 2.795-7.113 6.933-10.18 11.965-3.13 5.137-5.735 11.122-7.533 17.31-1.874 6.45-2.865 13.133-2.865 19.326 0 10.625 9.992 19.27 22.274 19.27H-3407.142m-5.71 27.078h-4V81.921h-5.874c-15.064 0-27.274-10.866-27.274-24.27C-3450 29.884-3432.16 0-3414.49 0c17.673 0 35.178 29.884 35.178 57.156 0 13.678-12.46 24.765-27.83 24.765h-5.71v22.078z" class="cls-12" transform="translate(4463 917)"/>
                </g>
            </g>
            <g id="Group_294" data-name="Group 294" transform="translate(-5 129)">
                <rect id="Rectangle_182" width="31" height="7" class="cls-10" data-name="Rectangle 182" rx="3" transform="translate(53 930)"/>
                <rect id="Rectangle_186" width="40" height="7" class="cls-10" data-name="Rectangle 186" rx="3" transform="translate(115 930)"/>
                <rect id="Rectangle_187" width="94" height="7" class="cls-10" data-name="Rectangle 187" rx="3" transform="translate(170 930)"/>
                <rect id="Rectangle_183" width="19" height="7" class="cls-10" data-name="Rectangle 183" rx="3" transform="translate(99 911)"/>
                <rect id="Rectangle_184" width="105" height="7" class="cls-10" data-name="Rectangle 184" rx="3" transform="translate(126 911)"/>
                <rect id="Rectangle_185" width="25" height="7" class="cls-10" data-name="Rectangle 185" rx="3" transform="translate(256 911)"/>
            </g>
            <g id="Group_297" data-name="Group 297" transform="translate(751 129)">
                <rect id="Rectangle_182-2" width="31" height="7" class="cls-10" data-name="Rectangle 182" rx="3" transform="translate(53 930)"/>
                <rect id="Rectangle_186-2" width="40" height="7" class="cls-10" data-name="Rectangle 186" rx="3" transform="translate(115 930)"/>
                <rect id="Rectangle_187-2" width="94" height="7" class="cls-10" data-name="Rectangle 187" rx="3" transform="translate(170 930)"/>
                <rect id="Rectangle_183-2" width="19" height="7" class="cls-10" data-name="Rectangle 183" rx="3" transform="translate(99 911)"/>
                <rect id="Rectangle_184-2" width="105" height="7" class="cls-10" data-name="Rectangle 184" rx="3" transform="translate(126 911)"/>
                <rect id="Rectangle_185-2" width="25" height="7" class="cls-10" data-name="Rectangle 185" rx="3" transform="translate(256 911)"/>
            </g>
            <g id="Group_295" data-name="Group 295" transform="translate(-10.733 -48.308)">
                <g id="Path_123" class="cls-9" data-name="Path 123">
                    <path d="M34.546 0c34.923 0 34.547 34.546 34.547 34.546H0S-.376 0 34.546 0z" class="cls-11" transform="translate(125 791.921)"/>
                    <path d="M34.546 3c-5.112 0-9.697.796-13.628 2.367-3.364 1.345-6.322 3.288-8.792 5.775-2.067 2.082-3.831 4.581-5.243 7.428-1.151 2.32-2.073 4.876-2.74 7.598-.51 2.078-.792 3.942-.949 5.378h62.707c-.503-4.628-2.323-13.72-8.9-20.37-2.47-2.497-5.43-4.447-8.8-5.798C44.266 3.8 39.672 3 34.547 3m0-3C69.47 0 69.093 34.546 69.093 34.546H0S-.376 0 34.546 0z" class="cls-12" transform="translate(125 791.921)"/>
                </g>
                <g id="Path_124" class="cls-9" data-name="Path 124">
                    <path d="M26.6 0c26.886 0 26.6 26.6 26.6 26.6H0S-.29 0 26.6 0z" class="cls-11" transform="translate(302.338 646.567)"/>
                    <path d="M26.597 3c-3.846 0-7.287.596-10.23 1.77-2.501 1-4.7 2.441-6.534 4.287-1.536 1.545-2.849 3.402-3.902 5.519-.864 1.736-1.557 3.652-2.06 5.693-.306 1.235-.504 2.371-.632 3.328h46.716c-.13-.957-.327-2.093-.632-3.328-.504-2.041-1.197-3.957-2.06-5.693-1.054-2.117-2.367-3.974-3.903-5.52-1.835-1.845-4.033-3.287-6.534-4.285C33.883 3.596 30.442 3 26.596 3m0-3c26.887 0 26.597 26.597 26.597 26.597H0S-.29 0 26.597 0z" class="cls-12" transform="translate(302.338 646.567)"/>
                </g>
                <g id="Path_131" class="cls-9" data-name="Path 131">
                    <path d="M26.6 0c26.886 0 26.6 26.6 26.6 26.6H0S-.29 0 26.6 0z" class="cls-11" transform="translate(898.54 726.803)"/>
                    <path d="M26.597 3c-3.846 0-7.287.596-10.23 1.77-2.501 1-4.7 2.441-6.534 4.287-1.536 1.545-2.849 3.402-3.902 5.519-.864 1.736-1.557 3.652-2.06 5.693-.306 1.235-.504 2.371-.632 3.328h46.716c-.13-.957-.327-2.093-.632-3.328-.504-2.041-1.197-3.957-2.06-5.693-1.054-2.117-2.367-3.974-3.903-5.52-1.835-1.845-4.033-3.287-6.534-4.285C33.883 3.596 30.442 3 26.596 3m0-3c26.887 0 26.597 26.597 26.597 26.597H0S-.29 0 26.597 0z" class="cls-12" transform="translate(898.54 726.803)"/>
                </g>
                <g id="Union_4" class="cls-9" data-name="Union 4">
                    <path d="M141.008 51H0s-.29-26.6 26.6-26.6c7.529 0 12.927 2.086 16.8 5.089C48.948 15.563 61.528 0 90.006 0c31.323 0 43.412 18.827 48.075 33.6a22.92 22.92 0 0 1 4.561-.432c18.025.004 17.83 17.832 17.83 17.832z" class="cls-11" transform="translate(337.999 714.656)"/>
                    <path d="M157.134 48.002c-.451-2.34-1.505-5.604-3.966-8.073-1.134-1.137-2.494-2.027-4.044-2.644-1.853-.739-4.034-1.113-6.481-1.113-1.414 0-2.747.125-3.965.372l-2.645.536-.812-2.573c-1.241-3.933-2.854-7.586-4.794-10.858-2.316-3.905-5.127-7.312-8.357-10.127-3.73-3.25-8.103-5.781-12.999-7.523C103.477 4.01 97.062 3 90.006 3c-6.451 0-12.375.844-17.607 2.508-4.638 1.476-8.836 3.63-12.479 6.402-5.988 4.559-10.611 10.849-13.74 18.695l-1.476 3.703-3.15-2.444c-3.813-2.959-8.845-4.459-14.958-4.459-3.845 0-7.286.596-10.229 1.77-2.5 1-4.699 2.441-6.533 4.286-1.536 1.545-2.85 3.403-3.903 5.52-.864 1.736-1.557 3.652-2.06 5.693-.306 1.236-.504 2.372-.632 3.328h153.895m3.338 3H0s-.29-26.597 26.596-26.597c7.53 0 12.928 2.086 16.798 5.09C48.948 15.562 61.528 0 90.006 0c31.323 0 43.412 18.828 48.076 33.604 1.373-.279 2.888-.432 4.56-.432 18.025 0 17.83 17.83 17.83 17.83z" class="cls-12" transform="translate(337.999 714.656)"/>
                </g>
                <g id="Union_5" class="cls-9" data-name="Union 5">
                    <path d="M39 51H0s-.29-26.6 26.6-26.6c7.529 0 12.927 2.086 16.8 5.089C48.948 15.563 61.528 0 90.006 0c51.557 0 51 51 51 51z" class="cls-11" transform="translate(587.624 663.394)"/>
                    <path d="M137.866 48.002c-.18-2.234-.59-5.569-1.521-9.44-.998-4.149-2.387-8.052-4.13-11.601-2.155-4.392-4.861-8.25-8.042-11.465-3.786-3.827-8.32-6.816-13.475-8.882C104.716 4.216 97.754 3 90.006 3c-6.451 0-12.375.844-17.607 2.508-4.638 1.476-8.836 3.63-12.479 6.402-5.988 4.559-10.611 10.849-13.74 18.695l-1.476 3.703-3.15-2.444c-3.813-2.959-8.845-4.46-14.958-4.46-3.845 0-7.286.597-10.229 1.772-2.5.998-4.699 2.44-6.533 4.285-1.536 1.545-2.85 3.403-3.903 5.52-.864 1.736-1.557 3.652-2.06 5.693-.306 1.236-.504 2.372-.632 3.328h134.627m3.142 3H0s-.29-26.597 26.596-26.597c7.53 0 12.928 2.086 16.798 5.09C48.948 15.562 61.528 0 90.006 0c51.558 0 51.002 51.002 51.002 51.002z" class="cls-12" transform="translate(587.624 663.394)"/>
                </g>
            </g>
        </g>
    </g>
</svg>
