<svg id="Graphic_Elements" style="fill:#ffd428" data-name="Graphic Elements" xmlns="http://www.w3.org/2000/svg" viewBox="0 0 1200 1200"><g id="Graphic_Elements-2" data-name="Graphic Elements"><path id="path4" d="M805.28,131h42.13C926.3,134.87,1007,161.4,1064,218c37.6,35.91,59,87.39,58.83,139.34-2.82-56.37-31.18-112.22-76.71-147C959.94,140.4,839.93,130,734.77,153.52c-77.39,16.61-152.53,55.61-201.31,119.26-28.23,36.44-40.69,83.48-36.91,129.24,1.88-.72,9.5,3.71,7.78-1.29-6.82-51.85,13.15-104.36,48.53-142C609,197.43,690.52,164.51,772,155.52c54.74-6.75,111.2-4.71,164.23,11.17.62,0,3.44,1.79,1.59,1.38C873.41,150.86,805.1,151.94,740,164.86c-78.51,15.58-156.78,54.81-202.06,122.92-22.77,33.6-30.65,75.87-25.06,115.77,52.32,6.53,100.13,33.18,138.79,68.2A340,340,0,0,1,742.8,599.29c49,6.75,99.13,2.36,146.62-11.24,15.74-5.22,28.38,7.55,33.71,20.84,22.55,45.29,66.76,78.77,117.57,84.09-29.85-28.3-46.41-69-45.79-110.07,1.67,40.87,18.32,85,52.75,110.42,2.12,1.29,10.39,2.75,6.43-.49-44.47-29.59-59.8-87.62-54.87-138.34a20.62,20.62,0,0,1,7.14-15.85c31.26-23.82,59.18-53,77.5-88,18.14-33.4,25-71.72,25.19-109.39,5.37,37.53.61,76.68-15.5,111.15-17.62,39.33-48.62,70.69-81.73,97.34-6.17,45,4,96.09,39.89,127,13,9.18,25.1,24.56,43.07,19.42-17.53-14-39.1-23.91-52-43-21.31-27.94-26-65.46-22.37-99.28,58-43.09,102.78-108.71,105.33-182.72,5.73,73.67-34.43,142.9-88.51,190.07-3.08,33.16,7.49,69.77,33.47,92.22,21.84,14.9,44,29.36,66.14,43.83a31.48,31.48,0,0,1,13.21,19v8.79c-2.38,10.62-10.57,20.5-21.75,21.91-60.42,7.84-126.38,4.37-179-29.39-28.94-18.34-50.76-45.81-67.22-75.48-53.9,9.87-109.89,9.46-163.31-3-7.67-2-11-9.3-13.43-16,1.06,12.69,4.75,27.47,2.86,38.68-1.9-54.43-28.51-107.92-70.21-142.38-55-49.5-130-76.42-204.12-79.1-92-3.69-187.8,18.64-262.19,74.78-32.1,24.13-60.78,53.83-79.35,89.74-25.91,50-27.72,111.12-7.36,163.35,15.95,40.34,45.47,74,79.76,99.93,10.59,51.55-8.29,113.53-56.8,139.81-4,2.87,4.28,3,5.62,2.38,23.9-13.53,39.57-37.41,50.28-62a121,121,0,0,1-45.84,64.56c3,2.56,8.54,3.26,11.23-.26,35-27.44,51.77-73.36,49.56-117.12-1.33-13.14,2.63-31.35-11.05-39.33-32.51-24-60.75-55.4-75.6-93.41-23.31-57.75-17-127.22,19.66-178.13,55-78.66,149-122.93,242.93-132.24C414.71,445.57,478.06,449,534.39,472c-90.68-30.41-191.93-24-280.83,9.65-51.83,20.52-98.87,54.52-132.23,99.39C90,623.46,78.69,679.6,91.42,730.79c9.37,44.34,37.86,82.4,72.18,111,7.31,6.41,17.06,11.2,20.65,20.78,11.4,55.46-4.5,118.23-48.82,155.35,36,6,79.12-6,98.15-39.24,10.86-17.88,14.06-38.87,16.39-59.29,2.4-15.21,19.19-25.64,33.88-20.91,94.72,22.44,199,10.89,283.38-38.89-83.05,53.86-189.7,66.69-285.41,45.22-11-3.31-24,4.29-25.29,15.91-2.59,28.21-9.57,58.14-30.35,78.74-21.37,20.84-52.63,27.54-81.61,27.1-7.86.26-17.33-6.7-23.37,1.23a120.52,120.52,0,0,0,99.2-16.5c27-19.55,37.72-53.77,40.26-85.65-.29-9.69,8.87-18.46,18.6-16.37,92.07,21.22,193,9.8,275.35-37.58,57.13-34.09,108.29-84.45,129.44-148.85,8.19-24.18,10.66-49.9,11.17-75.19,10.35,64.35-15.58,130.45-61.08,175.87-86,92.39-223.15,122.81-344.25,99.82-5.69-.07-17.8-8-17.52,2.85-2.23,33.29-13.44,68.18-39.83,90.24-33.08,26.24-80.35,32.14-119.71,17.79a8.31,8.31,0,0,0-8.42,2.2c39.61,17.61,87.53,13.91,124.33-8.81,25.63-16.46,41.59-44.7,48.08-73.9l-6.77-2.43c9.44-2.88,10.28-12.22,10.77-20.46,7.4,1.94,16.08,4.15,21.78-2.76,5.2-2.95-2.23,8.08,3.32,7.47,108.52,17.11,226.21-9.74,310.2-82.47,52.53-43.51,93.1-106.12,95.46-175.89,3.26,39.38-8.27,81.91-28.29,117.12-48,81.62-132.86,138.29-224.71,158.38C406.47,964,352.16,967.1,299.47,958.17c-7.9,35-27.34,68.62-58.35,87.91-21.25,14.35-46.83,19.9-71.91,22.9h-23.5c-30.38-4.06-59.25-15.77-85.58-31.18-13.49-8.19-11.33-31,3.56-36.37C77.08,998,91.2,995.87,103,988.06,135.29,968,150,928.39,148.67,891.55c2.68-4.9-8.43-12.26-6-2.51-.2-3,.06-6.68-2.88-8.45C94.53,847.35,59.35,798,50,742c13.28,54.45,47,103,91.11,137.15,1.54-7.83,4,.57,6.28,2.79,2-2.61-1.51-5.65-3.58-7.24C85.27,829.21,47.07,755.56,53.44,680.51c2.15-52.86,26.75-103.33,63.7-140.64,91.94-97.48,238-127.35,366.25-103.87-5.76-5.66-3.39-14.25-4.29-21.43-2.88-34.66-1.19-70.56,12-103.13,17.75-45.83,52.84-82.92,92.49-110.95,64.48-45.64,143.69-65.25,221.68-69.47M498.53,410.89c1,2.66,3.88,6.3,6.77,6.07,1-4.33-3.16-6.11-6.77-6.07m14.83,2a29.42,29.42,0,0,0,1.07,8.5c54,8.6,101.4,40.87,138.63,79.73,33.64,33,58.43,74.49,72.81,119.25,55.15,11.87,112.86,10.05,167.59-3.32-1.83-4.54,4.83-1.86,1.37,1.1,16.3,34.54,41.25,66,75,85,35.67,19.28,78.2,26.21,117.57,23.69-5.46-3.3-10-9.62-16.91-9.14-43.77-1.06-89.57-10.87-123.47-40.22-21.53-18.36-37-42.52-50-67.38C842.7,625,784.53,627.74,729.62,615.72c-9-23.47-18.84-47.19-33.27-68.05,14.35,16.19,23.44,36.81,32.72,56.33,1.63,2.15,5.28,1.2,7.48,2,.66-4.87-10.87-7-3.25-9.08-14.85-35.82-37.22-68.22-64-96.2-42.24-42.9-95-79.83-156-87.82M494.3,437.46C536.49,448.08,581.64,466.63,618,494c-33.29-31.27-77.36-54.17-123.67-56.53M891.72,594.71c-46,13-94.2,18-141.8,12.89-6.65-3.07-2.85,2.91-2.61,5.5-3.44-1.72-5.43-6-9.44-6.36.25,2.7.56,6.52,4.16,6.37,49.61,6.07,100.34.8,148.37-12.62,6.31-2.45,14.63-.43,17.45,6.15,14.4,27,32.54,52.88,58,70.47,27,18.82,60.07,26.37,92.39,29.14-1.32-3.2-6.08-4.67-9-6.24-26.78-2.62-53.73-9.68-76.54-24.48-26.5-16.86-45.12-43.27-59.63-70.63-3.6-7.88-12.84-12.76-21.36-10.19M730.58,607.62c1.61,7.44,9.64,4.7,0,0m328.18,93.16c1.14,4.19,9.07,6.52,13.56,5.12-3.34-3.91-8.63-5-13.56-5.12m41.13.3c-4.49.23-9,.47-13.39.91,5.55,5.56,13.83,4.53,21,3.3-.7-2.39-4.84-4.49-7.66-4.21m19.73,12.41c-2.21,1.35-6,8-2.82,7.89-.44-6.08,9.33-8.28,4.31-.12,1.24,8.27-6.51-2.45-5.1,4.51,12.41,5.38,15.06-12,3.61-12.28m-6.35,2.57c-12.5,1.39,7,6.31,0,0m-30.2,1.73c2.55,3.17,11.89,12,19.28,9.17-5.63-4.12-11.36-11.45-19.28-9.17M142.3,877.33c1.32,8.19,6,4.19,0,0m-47,136.6c-2.2.18-8.4,2.2-3.74,3.88,7.11,3.43,15.66-5,3.74-3.88m13.82,4.32c-2.8,1.14-9.26,3.43-3.53,4.93,7.56,4.67,15.42-4.93,3.53-4.93m-32.56.35c-3.92,6,3.71,5.9,0,0m-4.42,1.23c-.9,4,4.07-.88,0,0m7.59.79c.46,5.91,7.25-.26,0,0m12.61,5.73c-2.25-.09-7.8,2-3.45,3.7C95.38,1035.16,106,1027.05,92.38,1026.35Z"/><path id="path6" d="M688.18,140.26l3.59.16c-46.74,16.09-92.26,37.66-130.42,69.52-40.12,31.8-71.4,77-83.44,126.12,6.73-39.14,26.73-75.1,53.34-104.25C572.87,186.56,628.64,155,688.18,140.26Z"/><path id="path12" d="M896.67,153c60.46,9,120.08,34.64,163.32,78.68,21.84,21.71,40.6,51.75,46.24,80.59C1079.37,220.64,983.55,169.08,896.67,153Z"/><path id="path20" d="M274.13,436c3.63-.51-3.1,2.48-4.52,2.82C206.75,459.77,147.72,495,104.21,545.44c-22.82,25.74-39.48,58.14-48.94,90.1,5.69-27.7,18.15-53.64,33.82-77C133.19,497.06,200.58,453.12,274.13,436Z"/><path id="path26" d="M479.71,451.46a317,317,0,0,1,133.87,55.69c39.26,28.1,70.68,69.2,81.1,116.89-12.36-45.32-42.9-88.07-82.8-115.19-38.93-29-85.37-47.1-132.17-57.39Z"/></g></svg>